<svg width="41" height="40" viewBox="0 0 41 40" fill="none" xmlns="http://www.w3.org/2000/svg">
<rect x="0.800781" width="40" height="40" rx="10.5" fill="#008001"/>
<path d="M27.9482 18.5419C28.2812 20.1762 28.0439 21.8752 27.2758 23.3557C26.5078 24.8362 25.2553 26.0086 23.7275 26.6774C22.1996 27.3463 20.4886 27.4711 18.8798 27.0311C17.271 26.5911 15.8617 25.6129 14.8869 24.2596C13.912 22.9063 13.4306 21.2596 13.5229 19.5943C13.6152 17.929 14.2755 16.3457 15.3939 15.1084C16.5123 13.871 18.0211 13.0545 19.6686 12.7949C21.3161 12.5353 23.0029 12.8484 24.4475 13.682" stroke="white" stroke-width="1.4575" stroke-linecap="round" stroke-linejoin="round"/>
<path d="M18.6133 19.2712L20.8008 21.4587L28.0924 14.167" stroke="white" stroke-width="1.4575" stroke-linecap="round" stroke-linejoin="round"/>
</svg>
