<svg width="41" height="40" viewBox="0 0 41 40" fill="none" xmlns="http://www.w3.org/2000/svg">
<rect x="0.597656" width="40" height="40" rx="10.5" fill="url(#paint0_linear_52_4741)"/>
<path d="M22.6797 17.9164L18.513 22.0831M18.513 17.9164L22.6797 22.0831M27.263 20.8331C27.263 24.9997 24.3464 27.0831 20.8797 28.2914C20.6982 28.3529 20.501 28.35 20.3214 28.2831C16.8464 27.0831 13.9297 24.9997 13.9297 20.8331V14.9997C13.9297 14.7787 14.0175 14.5667 14.1738 14.4105C14.33 14.2542 14.542 14.1664 14.763 14.1664C16.4297 14.1664 18.513 13.1664 19.963 11.8997C20.1396 11.7489 20.3641 11.666 20.5964 11.666C20.8286 11.666 21.0531 11.7489 21.2297 11.8997C22.688 13.1747 24.763 14.1664 26.4297 14.1664C26.6507 14.1664 26.8627 14.2542 27.0189 14.4105C27.1752 14.5667 27.263 14.7787 27.263 14.9997V20.8331Z" stroke="white" stroke-width="1.5" stroke-linecap="round" stroke-linejoin="round"/>
<defs>
<linearGradient id="paint0_linear_52_4741" x1="0.597656" y1="20" x2="40.5977" y2="20" gradientUnits="userSpaceOnUse">
<stop stop-color="#FB2C36"/>
<stop offset="1" stop-color="#E7000B"/>
</linearGradient>
</defs>
</svg>
